<svg width="168" height="169" viewBox="0 0 168 169" fill="none" xmlns="http://www.w3.org/2000/svg">
<rect y="0.834473" width="168" height="168" rx="84" fill="white" fill-opacity="0.8"/>
<path d="M102.378 68.5608C92.0625 68.5608 81.7496 68.5608 71.434 68.5608C69.9743 68.5608 68.5146 68.5608 67.0578 68.5608C66.6459 68.5608 63.9815 69.1239 64.5055 70.0317C69.6633 78.9633 74.8211 87.895 79.9762 96.8295C80.7074 98.093 81.4358 99.3566 82.1643 100.62C82.2035 100.69 82.282 100.724 82.3408 100.777C82.3772 100.813 82.4024 100.85 82.4557 100.878C83.4026 101.466 85.7336 100.648 85.8316 99.8833C90.9391 91.0357 96.0465 82.188 101.157 73.3404C101.885 72.0769 102.616 70.8133 103.345 69.5498C103.754 68.8381 103 68.5608 102.378 68.5608ZM70.3469 72.8417C69.9014 72.0685 69.456 71.2952 69.0077 70.5219C78.1887 70.5219 87.3698 70.5219 96.5508 70.5219C97.4977 70.5219 98.4447 70.5219 99.3917 70.5219C94.4243 79.1258 89.457 87.7297 84.4897 96.3308C84.3916 96.4989 84.2964 96.667 84.1983 96.8323C79.5812 88.8364 74.964 80.8404 70.3469 72.8417Z" fill="#FE7064"/>
<path d="M143.198 89.7774C142.164 87.1102 140.116 85.5749 137.713 84.7036C139.413 83.9892 140.971 82.947 142.061 81.4313C144.913 77.4725 144.002 71.9169 142.924 67.5126C141.61 62.1503 139.276 57.1213 137.841 51.8038C136.354 46.2957 135.76 40.4543 135.415 34.7697C135.387 34.2962 134.611 34.1449 134.272 34.1253C128.719 33.7863 123.029 33.2148 117.65 31.7607C112.604 30.3991 107.822 28.1914 102.765 26.841C98.3017 25.6503 93.1523 24.7174 88.7088 26.4852C86.7001 27.2837 85.2712 28.5444 84.2514 30.0769C84.229 30.0405 84.2178 29.9985 84.1926 29.9593C83.1476 28.197 81.5478 26.9559 79.6231 26.2723C75.2133 24.7005 70.1002 25.7792 65.7353 26.9699C60.7903 28.3203 56.1004 30.472 51.1554 31.8083C45.8127 33.2512 40.1337 33.8031 34.6173 34.1421C33.9841 34.1814 32.6113 34.666 32.5637 35.4617C32.2163 41.1463 31.6251 46.9877 30.1374 52.4958C28.731 57.7097 26.4504 62.6462 25.1309 67.8965C24.0494 72.2054 23.038 77.7219 25.68 81.6918C26.7614 83.3196 28.406 84.3842 30.2103 85.0454C28.1062 85.9167 26.2823 87.3007 25.1813 89.5056C23.066 93.7417 24.2091 99.1013 25.3802 103.435C26.7754 108.596 29.056 113.493 30.3419 118.676C31.6531 123.969 32.2387 129.505 32.5693 134.94C32.5973 135.414 33.3761 135.565 33.7123 135.584C39.0131 135.907 44.4063 136.473 49.5641 137.75C54.6715 139.016 59.4932 141.266 64.567 142.675C69.0692 143.925 74.171 144.922 78.7237 143.356C81.0407 142.561 82.6825 141.165 83.8059 139.4C84.8958 141.37 86.5936 142.908 89.1431 143.628C93.693 144.914 98.8032 143.726 103.216 142.451C108.06 141.053 112.697 138.918 117.591 137.705C122.715 136.433 128.097 135.893 133.359 135.57C133.992 135.531 135.365 135.049 135.412 134.251C135.726 129.079 136.298 123.837 137.455 118.783C138.634 113.622 140.887 108.759 142.344 103.674C143.579 99.3843 144.882 94.1228 143.198 89.7774ZM93.2363 41.3284C101.204 43.1747 108.192 47.1866 113.784 52.5966C96.3826 52.5966 78.9843 52.5966 61.5832 52.5966C58.9356 52.5966 56.2881 52.5966 53.6433 52.5966C53.6069 52.5966 53.5481 52.5994 53.5032 52.6022C63.8273 42.5583 78.7153 37.9636 93.2363 41.3284ZM61.5832 115.696C59.8518 115.696 58.1204 115.696 56.3889 115.696C55.8342 115.696 54.862 115.858 54.1756 115.771C54.2961 115.71 54.1952 115.413 54.2681 114.849C54.4306 113.589 54.2681 112.196 54.2681 110.927C54.2681 100.093 54.2681 89.2563 54.2681 78.4223C54.2681 70.2723 54.2681 62.1251 54.2681 53.975C71.6467 53.975 89.0226 53.975 106.398 53.975C108.13 53.975 109.861 53.975 111.593 53.975C112.147 53.975 113.117 53.8125 113.803 53.8994C113.683 53.961 113.784 54.2552 113.711 54.8211C113.548 56.0819 113.711 57.4771 113.711 58.7463C113.711 69.5803 113.711 80.4143 113.711 91.2511C113.711 99.4011 113.711 107.551 113.711 115.701C96.3377 115.696 78.9619 115.696 61.5832 115.696ZM50.6175 108.932C50.6175 110.406 50.6175 111.88 50.6175 113.356C50.3514 113.04 50.0684 112.743 49.8134 112.418C38.4667 98.0535 37.0043 77.4921 46.3142 61.7048C47.5861 59.5503 49.0346 57.5444 50.6175 55.6756C50.6175 73.4269 50.6175 91.181 50.6175 108.932ZM106.401 117.074C109.049 117.074 111.696 117.074 114.341 117.074C114.38 117.074 114.453 117.054 114.506 117.046C110.265 121.282 105.152 124.689 99.2963 126.866C83.635 132.69 65.9678 128.325 54.0972 117.074C71.5319 117.074 88.9666 117.074 106.401 117.074ZM117.367 60.7354C117.367 59.3234 117.367 57.9086 117.367 56.4937C123.856 64.428 127.716 74.5308 127.851 85.1827C127.722 95.7898 123.92 105.965 117.367 113.902C117.367 96.182 117.367 78.4587 117.367 60.7354ZM92.4322 27.8272C97.0185 27.5498 101.742 29.214 106.015 30.6793C110.495 32.2118 114.823 33.9404 119.502 34.7977C123.561 35.5401 127.688 36.0108 131.807 36.2966C132.078 40.4599 132.541 44.6343 133.294 48.7331C134.163 53.4511 135.911 57.8245 137.438 62.3464C138.881 66.6273 140.427 71.2893 140.245 75.8672C140.175 77.6574 139.842 79.5598 138.766 81.039C138.152 81.8823 137.362 82.5071 136.407 82.933C136.082 83.0786 134.421 83.4989 133.465 83.8015C132.905 83.7538 132.347 83.7258 131.79 83.7146C131.692 83.7146 131.585 83.7454 131.485 83.7594C131.05 64.1647 118.255 46.6123 99.5512 40.4599C94.9873 38.9582 90.2665 38.1989 85.5542 38.1261C85.7111 37.9496 85.8259 37.7563 85.8287 37.5181C85.8904 32.943 87.1371 28.1466 92.4322 27.8272ZM27.8092 76.2538C27.2937 71.6787 28.843 66.8571 30.2551 62.5677C31.7512 58.015 33.6087 53.6052 34.5388 48.8872C35.3625 44.7128 35.8556 40.4514 36.1498 36.2013C40.1505 35.8932 44.1485 35.4281 48.082 34.6716C53.0157 33.7219 57.5908 31.8027 62.3397 30.231C66.5365 28.8386 71.5487 27.0791 76.0201 28.0121C78.1634 28.4604 79.9144 29.7043 80.9286 31.6655C81.489 32.7441 81.7831 33.9796 81.9652 35.1731C82.0717 35.8708 81.8588 37.4649 82.195 38.1933C68.9964 38.8937 56.1928 44.9201 47.4629 55.2022C40.5988 63.2878 36.9623 73.4045 36.6205 83.6502C31.9921 83.3476 28.3808 81.3304 27.8092 76.2538ZM137.732 107.139C136.236 111.692 134.379 116.102 133.448 120.82C132.625 124.991 132.135 129.253 131.838 133.5C128.148 133.786 124.458 134.203 120.821 134.862C116.045 135.727 111.64 137.417 107.071 138.988C102.756 140.471 97.9123 142.222 93.2755 141.824C88.0364 141.37 86.1509 137.173 85.8847 132.388C85.8371 131.556 84.201 131.749 83.7835 131.85C83.7415 131.858 83.6967 131.869 83.6547 131.881C83.156 131.998 82.1334 132.463 82.0941 133.108C81.8168 137.963 79.9845 141.852 74.6613 141.863C70.0526 141.874 65.4215 140.227 61.1209 138.731C56.6467 137.173 52.3265 135.565 47.6338 134.761C43.8515 134.114 40.0189 133.679 36.1862 133.41C35.8892 128.827 35.3681 124.215 34.4492 119.716C33.4546 114.838 31.457 110.266 29.9525 105.537C28.5853 101.239 27.0668 96.2828 27.9745 91.7414C28.406 89.5841 29.5126 87.693 31.5831 86.7712C32.9895 86.1437 34.9787 86.4042 36.5952 86.0736C36.7381 94.1928 38.9514 102.301 43.3472 109.445C53.6377 126.174 73.7928 134.427 92.9281 130.634C114.364 126.387 130.487 107.949 131.431 86.1661C131.731 86.1689 132.036 86.1577 132.361 86.124C136.511 86.6507 139.651 88.7408 140.181 93.4504C140.691 98.0283 139.141 102.85 137.732 107.139Z" fill="#FE7064"/>
</svg>
