<svg width="168" height="169" viewBox="0 0 168 169" fill="none" xmlns="http://www.w3.org/2000/svg">
<rect y="0.834473" width="168" height="168" rx="84" fill="white" fill-opacity="0.8"/>
<path d="M119.264 56.3906C114.221 50.219 107.527 45.3718 99.6449 42.6131C81.9344 36.42 61.4572 41.9562 49.2642 56.2029C36.921 70.6265 35.0953 91.7767 44.9023 108.056C54.6717 124.278 74.1167 132.348 92.5618 128.699C113.57 124.543 129.275 106.114 129.479 84.6292C129.38 74.1895 125.691 64.3289 119.385 56.5434C119.358 56.4844 119.329 56.4308 119.264 56.3906ZM84.1784 124.758C74.8808 104.999 65.5832 85.2432 56.2856 65.4844C55.0899 62.9455 53.8969 60.4067 52.7012 57.8705C71.3286 57.8705 89.9559 57.8705 108.583 57.8705C110.94 57.8705 113.299 57.8705 115.656 57.8705C105.926 78.5461 96.1945 99.2244 86.4626 119.9C85.7039 121.519 84.9398 123.139 84.1784 124.758ZM92.4546 43.1412C101.24 45.0903 108.867 49.8007 114.629 56.1895C96.224 56.1895 77.8219 56.1895 59.417 56.1895C57.1945 56.1895 54.9746 56.1895 52.7548 56.1895C62.5484 45.2002 77.6771 39.8624 92.4546 43.1412ZM51.5376 111.527C40.5537 97.8919 38.9799 78.2405 47.7467 63.0608C48.366 61.9884 49.0389 60.9563 49.7467 59.9536C59.1837 80.0045 68.6181 100.056 78.0524 120.104C79.1865 122.514 80.3205 124.921 81.4545 127.332C69.9639 126.404 58.9532 120.731 51.5376 111.527ZM98.6342 125.021C94.5591 126.533 90.3393 127.316 86.1275 127.458C95.8165 106.868 105.508 86.278 115.197 65.6882C116.066 63.8437 116.932 62.0018 117.8 60.1573C122.881 67.2941 125.884 75.9482 125.969 85.0421C125.806 102.53 115.243 118.854 98.6342 125.021Z" fill="#FFE741"/>
<path d="M139.444 96.5081C138.546 92.35 137.658 87.0282 133.524 84.8486C133.546 84.6127 133.54 84.3768 133.527 84.1408C137.291 81.7601 138.371 77.3285 139.28 73.1247C140.2 68.8808 141.827 65.0523 143.953 61.2668C144.009 61.1489 143.985 61.0523 143.878 60.98C138.91 58.9076 135.068 56.0872 130.832 52.862C127.479 50.307 123.819 48.744 120.063 49.559C120.361 48.8298 120.666 47.9263 120.685 47.7762C120.873 46.4384 120.589 45.1274 120.106 43.8807C119.178 41.484 117.508 39.4196 115.894 37.4518C113.007 33.929 110.843 30.2614 109.084 26.0523C108.744 25.2346 106.468 26.2051 105.999 26.4705C101.991 28.7225 98.0362 29.9826 93.5992 31.0416C90.4625 31.7896 86.7896 32.8298 84.4115 35.1703C82.0121 32.1837 77.634 31.3016 74.0415 30.5242C69.8673 29.618 66.1005 28.0201 62.3793 25.9263C61.6608 25.5215 59.3525 26.0094 59.0094 26.8298C57.264 31.0148 55.1193 34.6716 52.2506 38.173C50.7037 40.0604 49.1139 42.0202 48.1461 44.2802C47.693 45.3365 47.3659 46.4652 47.3417 47.6207C47.339 47.7574 47.4731 48.4786 47.6608 49.24C44.1648 49.1408 40.5589 51.0711 37.7975 53.1194C35.457 54.8566 33.3846 56.9103 30.8458 58.3687C28.8967 59.4867 26.8351 60.4438 24.76 61.3097C24.634 61.3633 23.8672 61.736 24.0201 62.0068C26.0817 65.6717 27.7358 69.4089 28.6232 73.5269C29.1272 75.854 29.6205 78.2293 30.6098 80.4089C31.0549 81.3902 31.5938 82.3392 32.3042 83.1516C33.0361 83.988 34.2238 84.5242 34.4168 85.6449C30.7117 88.0363 29.6286 92.4197 28.7198 96.5993C27.7948 100.841 26.1702 104.669 24.0442 108.452C23.9879 108.57 24.012 108.664 24.1192 108.736C29.0147 110.779 32.8592 113.546 37.0308 116.739C40.4544 119.358 44.1916 120.921 48.0281 120.034C47.7278 120.784 47.3793 121.755 47.3578 121.921C47.1702 123.256 47.4437 124.562 47.9182 125.808C48.8271 128.197 50.4731 130.259 52.071 132.221C54.9396 135.752 57.1085 139.412 58.8645 143.615C59.205 144.436 61.4785 143.463 61.9503 143.197C65.9584 140.945 69.9155 139.685 74.3498 138.626C77.4892 137.878 81.1622 136.833 83.5402 134.489C85.9397 137.479 90.3177 138.363 93.9102 139.146C98.0845 140.052 101.848 141.65 105.572 143.741C106.291 144.146 108.599 143.658 108.942 142.838C110.688 138.656 112.83 135.001 115.698 131.5C117.243 129.615 118.827 127.658 119.798 125.406C120.251 124.353 120.58 123.224 120.607 122.071C120.61 121.937 120.487 121.232 120.307 120.479C123.808 120.591 127.425 118.658 130.194 116.605C132.538 114.867 134.613 112.808 137.157 111.347C139.103 110.229 141.168 109.272 143.24 108.406C143.366 108.353 144.133 107.98 143.98 107.709C141.983 104.157 140.31 100.505 139.444 96.5081ZM132.599 112.43C128.905 115.023 124.288 121.203 119.462 118.031C118.69 117.524 116.849 118.192 116.232 118.758C116.186 118.8 116.141 118.843 116.095 118.884C115.977 118.969 115.924 119.079 115.929 119.219C119.283 124.366 114.28 129.607 111.133 133.447C109.197 135.808 107.725 138.481 106.46 141.251C103.972 139.964 101.382 138.841 98.6689 138.2C94.3231 137.173 88.3498 136.656 86.138 132.149C85.9799 131.827 85.4249 131.902 85.1488 131.916C84.9558 131.91 84.7627 131.902 84.5724 131.897C83.819 131.859 82.1005 132.13 81.7145 132.918C79.4598 137.532 73.2881 137.455 68.9637 138.717C66.5294 139.428 64.1836 140.492 61.9155 141.669C60.5401 138.495 58.9504 135.404 56.7574 132.717C53.6206 128.873 48.5911 123.548 52.0094 118.406C52.0657 118.288 52.0415 118.192 51.9316 118.119C51.8753 118.063 51.819 118.007 51.76 117.948C51.1863 117.371 49.3015 118.16 48.7761 118.492C44.835 121.007 38.5563 113.857 35.7144 111.846C33.9825 110.621 32.0442 109.664 30.13 108.76C29.5401 108.481 28.4302 108.211 27.9262 107.763C27.8029 107.653 27.7251 107.613 27.6688 107.597C27.6769 107.562 27.6849 107.535 27.6876 107.481C27.8002 106.165 29.4705 104.058 30.0067 102.865C30.827 101.039 31.4597 99.2132 31.894 97.2615C32.7197 93.5323 33.3953 87.551 37.2318 85.5939C37.4838 85.4652 37.9905 85.2561 37.9718 84.8969C37.9369 84.5457 37.9342 84.1971 37.9718 83.8459C37.9369 83.803 37.9047 83.7601 37.8699 83.7199C33.575 81.5269 32.8565 75.8835 31.9181 71.6449C31.1112 68.0041 29.4919 64.6234 27.6822 61.3767C30.3525 60.2346 33.0415 58.9478 35.4061 57.2883C39.0897 54.7038 43.6983 48.5376 48.516 51.669C49.2801 52.1676 51.1433 51.5215 51.7439 50.9424C51.7894 50.8995 51.8351 50.8566 51.878 50.8137C51.9932 50.7279 52.0496 50.618 52.0442 50.4786C48.6528 45.3285 53.6661 40.0711 56.819 36.2266C58.7573 33.8646 60.2265 31.1917 61.4946 28.4196C63.9826 29.7065 66.5724 30.8298 69.2855 31.4705C73.6314 32.4947 79.6125 33.0094 81.8243 37.5242C81.9825 37.8459 82.5375 37.7708 82.8137 37.7574C83.004 37.7628 83.1917 37.7655 83.382 37.7708C84.1354 37.8083 85.8539 37.5376 86.2373 36.7494C88.4947 32.1381 94.6662 32.2159 98.9933 30.9531C101.428 30.2427 103.773 29.1783 106.042 27.9987C107.417 31.1756 109.004 34.2722 111.205 36.9531C114.35 40.7923 119.492 46.1408 116.039 51.299C115.983 51.4143 116.007 51.5135 116.117 51.5832C116.151 51.6207 116.189 51.6556 116.224 51.6931C116.79 52.2695 118.69 51.484 119.208 51.1489C123.06 48.6636 129.28 55.677 132.028 57.6743C133.747 58.9237 135.658 59.8995 137.572 60.8111C138.336 61.1757 139.168 61.4625 139.902 61.8727C140.527 62.2239 140.379 61.9692 140.393 62.1033C140.503 63.1086 138.591 65.5698 138.162 66.5001C137.323 68.3339 136.629 70.1837 136.181 72.1516C135.315 75.9639 134.728 82.1462 130.782 84.1516C130.53 84.2776 130.023 84.4894 130.042 84.8486C130.074 85.1811 130.074 85.5135 130.039 85.8459C130.036 85.8915 130.09 85.9183 130.138 85.9478C130.143 85.9532 130.13 85.9666 130.141 85.9719C134.452 88.1569 135.157 93.8299 136.095 98.0738C136.899 101.715 138.522 105.098 140.331 108.345C137.65 109.484 134.964 110.768 132.599 112.43Z" fill="#FFE741"/>
</svg>
