<svg width="168" height="169" viewBox="0 0 168 169" fill="none" xmlns="http://www.w3.org/2000/svg">
<rect y="0.834473" width="168" height="168" rx="84" fill="white" fill-opacity="0.8"/>
<path fill-rule="evenodd" clip-rule="evenodd" d="M139.517 79.4885C140.978 80.9495 142.438 82.4104 143.9 83.8707C144.058 84.0289 144.016 84.2339 143.861 84.3847L135.756 92.4888C136.549 93.5735 137.409 94.6137 138.412 95.6291C139.018 96.2444 137.432 96.8769 137.103 96.9584C135.43 97.376 133.706 97.8158 132.156 98.5817C130.012 99.7998 127.978 100.941 125.703 101.507C126.889 103.32 127.313 105.345 127.767 107.516L127.835 107.84C128.292 109.999 129.253 112.025 130.254 113.982C130.657 114.768 128.389 115.279 127.998 115.254C127.648 115.233 127.294 115.216 126.941 115.199L126.916 115.198V115.591V125.577C126.916 125.978 126.454 126.301 126.157 126.474C125.698 126.741 125.231 126.808 124.71 126.808H123.491H117.374C117.482 127.408 117.604 128.004 117.734 128.592C117.974 129.699 115.466 129.97 114.829 129.76C112.067 128.844 109.551 128.513 106.675 128.325C105.005 128.219 103.434 127.92 102.04 127.267C101.625 128.994 100.664 130.561 99.4508 132.093C97.7658 134.223 96.4711 136.365 95.4037 138.873C95.0899 139.604 92.8934 140.521 92.2955 139.705C91.7668 138.984 91.2158 138.28 90.6475 137.598L85.4835 142.762C85.0808 143.164 84.5002 143.364 83.9566 143.483C83.6132 143.557 82.8126 143.715 82.4988 143.404C81.2275 142.131 79.954 140.858 78.6805 139.585C78.0482 138.953 77.416 138.321 76.7839 137.689C76.4183 138.144 76.0625 138.608 75.7092 139.088C75.2644 139.693 73.0357 140.526 72.6107 139.527C71.5409 137.017 70.2438 134.843 68.5562 132.711C67.1034 130.877 66.0262 129.022 65.8063 126.884C64.3263 127.66 62.6511 128.09 60.8993 128.263C60.5967 128.293 60.2971 128.322 60.0002 128.351L59.9972 128.351C57.2775 128.615 54.7769 128.857 52.0936 129.746C51.7378 129.864 50.1144 130.077 50.2948 129.249C50.4875 128.362 50.6678 127.463 50.8111 126.556H50.6259H42.0844C41.8793 126.556 41.1233 126.526 41.1233 126.163V124.75V115.166C40.3228 115.175 39.5222 115.21 38.734 115.259C38.4968 115.272 37.5258 115.126 37.7729 114.642C38.776 112.685 39.7372 110.659 40.1918 108.499L40.2678 108.138C40.7529 105.825 41.2072 103.659 42.586 101.757C40.34 101.463 38.4203 100.539 36.3671 99.3847C34.4004 98.2828 32.2952 97.6008 30.1086 97.0573C29.7701 96.9708 29.2068 96.6718 29.6244 96.2493C30.6028 95.2561 31.428 94.2332 32.1989 93.1781L24.1539 85.1333C23.8451 84.8244 24.0552 84.313 24.3097 84.0585C26.2136 82.153 28.1186 80.2485 30.0232 78.3444L30.0242 78.3434L30.0252 78.3424C30.9549 77.4129 31.8846 76.4835 32.814 75.5541C32.1222 74.4694 31.3687 73.4144 30.4767 72.3742C29.8096 71.5984 31.801 71.0301 32.2211 70.956C34.3146 70.5888 36.2597 69.8099 38.1962 69.0344C39.7131 68.4269 41.2248 67.8216 42.7984 67.4179C41.922 65.8973 41.4759 64.2951 41.008 62.6148L41.0079 62.6145C40.8836 62.1679 40.7577 61.7158 40.6217 61.2582C40.0535 59.3335 39.0429 57.515 38.0496 55.7805C37.6049 55.0072 39.9497 54.5031 40.3055 54.5081C40.4833 54.5113 40.6621 54.5103 40.8414 54.5092H40.8414H40.8415L40.8421 54.5092C40.9317 54.5086 41.0213 54.5081 41.111 54.5081C41.112 54.4652 41.1145 54.4214 41.1169 54.3779C41.1201 54.3211 41.1233 54.2648 41.1233 54.2116V43.607C41.1233 43.2582 41.6302 43.0503 41.926 42.929C41.9507 42.9189 41.974 42.9093 41.9954 42.9004C42.5538 42.6656 43.174 42.5297 43.7818 42.5297H51.1077C50.9793 41.786 50.8359 41.0473 50.6778 40.3135C50.4357 39.2066 52.9459 38.9348 53.5809 39.1448C56.3457 40.0614 58.8585 40.395 61.7345 40.5803C63.4047 40.689 64.9761 40.9855 66.3696 41.6378C66.7871 39.9107 67.7483 38.3443 68.9614 36.8124C70.6465 34.685 71.9387 32.5404 73.0086 30.035C73.3199 29.3012 75.5189 28.387 76.1144 29.2024C76.7815 30.1116 77.4758 31.0159 78.222 31.8733L84.0159 26.0793L90.0915 32.155C90.7339 31.4039 91.3418 30.6206 91.9274 29.8201C92.3721 29.2148 94.6008 28.3821 95.0282 29.3803C96.0981 31.8881 97.3927 34.0649 99.0827 36.1972C100.536 38.0305 101.613 39.8836 101.833 42.0208C103.313 41.245 104.988 40.8175 106.74 40.6421C107.043 40.6118 107.344 40.5827 107.642 40.5539C110.361 40.2904 112.862 40.0481 115.545 39.1596C115.901 39.041 117.525 38.8285 117.344 39.6562C117.154 40.5235 116.988 41.3981 116.85 42.2777H125.923C126.157 42.2777 126.904 42.3617 126.904 42.7422V45.5614V54.3055V54.4809C127.605 54.5081 128.304 54.5204 129.014 54.5105C129.557 54.5007 130.212 54.723 129.856 55.3407C128.846 57.0999 127.875 58.9357 127.324 60.895C127.245 61.1778 127.168 61.4584 127.092 61.7366L127.092 61.7367C126.57 63.6486 126.077 65.452 125.016 67.1387C126.904 67.4682 128.542 68.1964 130.295 68.9753L130.295 68.9754L130.295 68.9754C130.685 69.1485 131.08 69.324 131.484 69.4982C133.241 70.2518 135.173 70.62 137.051 70.9486C137.441 71.0178 137.899 71.3316 137.535 71.7541C136.601 72.8437 135.833 73.9555 135.126 75.0995C136.59 76.5621 138.053 78.0253 139.517 79.4885ZM130.972 91.217C130.633 90.608 130.295 89.9993 129.94 89.4127L129.931 89.3989L129.931 89.3986C129.898 89.3447 129.866 89.2941 129.836 89.2373C129.093 88.0365 128.248 86.9617 127.124 86.2007C126.852 91.1126 125.735 95.8317 123.897 100.217C123.917 100.216 123.938 100.213 123.959 100.211L123.959 100.211C123.995 100.206 124.028 100.203 124.05 100.203C126.06 100.205 127.693 99.2436 129.345 98.271L129.346 98.2708L129.346 98.2706C129.631 98.1029 129.916 97.9348 130.205 97.7713C131.64 97.0622 133.147 96.526 134.682 96.0739C133.898 95.2536 133.155 94.3987 132.475 93.4993C132.472 93.4965 132.468 93.4945 132.464 93.4928C132.462 93.4917 132.459 93.4908 132.456 93.4898C132.451 93.4882 132.447 93.4866 132.442 93.4843C132.439 93.4825 132.436 93.4802 132.433 93.4771C132.389 93.4203 132.348 93.3574 132.307 93.2946L132.307 93.2945C132.279 93.2509 132.25 93.2073 132.221 93.1658C132.071 92.9621 131.932 92.754 131.792 92.5436L131.792 92.5434L131.792 92.5433L131.769 92.5086L131.685 92.377C131.596 92.2378 131.507 92.0979 131.42 91.9551C131.376 91.8827 131.33 91.8122 131.284 91.7418L131.284 91.7417L131.284 91.7417C131.214 91.6344 131.144 91.5273 131.082 91.414L130.972 91.217ZM53.1807 109.974C63.8396 123.121 82.2048 128.621 98.1784 122.588C113.865 116.663 123.84 101.198 123.993 84.6293C123.82 65.8291 110.643 48.9068 92.162 44.788C75.388 41.0498 58.053 48.9192 49.4893 63.7389C41.1085 78.2374 42.6478 96.9831 53.1807 109.974ZM44.7652 113.547C45.2742 113.574 45.7832 113.619 46.2823 113.703C46.7836 113.787 47.2774 113.909 47.7702 114.031L47.7704 114.031L47.7706 114.031L47.9822 114.083C49.6425 114.429 51.3028 114.731 52.9904 114.365C50.6679 112.038 48.5998 109.414 46.8579 106.515C46.1365 105.315 45.504 104.079 44.9135 102.829C44.2571 104.142 43.9586 105.548 43.6477 107.014L43.6477 107.014C43.5372 107.534 43.4252 108.062 43.295 108.596C42.88 110.306 42.1166 111.946 41.3234 113.525C41.998 113.5 42.6724 113.498 43.3469 113.508C43.3498 113.508 43.353 113.508 43.3563 113.507C43.3601 113.507 43.364 113.507 43.368 113.506C43.3754 113.506 43.3828 113.505 43.389 113.505C43.4162 113.506 43.4435 113.507 43.4707 113.508C43.525 113.51 43.5793 113.513 43.6336 113.513C43.7499 113.515 43.8668 113.516 43.9841 113.517H43.9852H43.9852H43.9853C44.1964 113.519 44.4084 113.521 44.6194 113.532C44.6441 113.534 44.6682 113.537 44.6923 113.54C44.7164 113.543 44.7405 113.546 44.7652 113.547ZM47.0107 55.3578C46.0331 55.6049 45.0439 55.855 44.0091 55.9782C43.3247 56.0597 42.6354 56.0992 41.9435 56.1363C42.6032 57.3297 43.2334 58.5503 43.6707 59.8276C43.9354 60.6031 44.1383 61.3782 44.3389 62.1446C44.6458 63.3172 44.9475 64.4695 45.457 65.5722C46.9147 62.6789 48.711 59.9289 50.8482 57.3964C51.5647 56.5465 52.3133 55.7311 53.0892 54.9479C53.0699 54.9454 53.0482 54.9448 53.028 54.9442H53.0279H53.0278C53.0066 54.9436 52.9869 54.943 52.973 54.9405C50.8536 54.3863 48.9552 54.8662 47.0107 55.3578ZM124.487 60.1686C124.996 58.7899 125.7 57.4681 126.427 56.1783C125.925 56.1734 125.426 56.161 124.925 56.1388C124.512 56.1635 124.097 56.1536 123.736 56.124C122.995 56.0622 122.241 55.9955 121.512 55.8349C120.936 55.7085 120.354 55.545 119.767 55.3805C118.221 54.9467 116.652 54.5063 115.118 54.723C118.239 57.9449 120.828 61.6461 122.807 65.676C123.187 64.7357 123.444 63.7655 123.705 62.7831C123.934 61.917 124.167 61.0415 124.487 60.1686ZM122.926 53.9694C123.015 53.9892 123.103 54.009 123.19 54.0263C123.285 54.0491 123.38 54.0661 123.475 54.0831C123.544 54.0956 123.613 54.108 123.682 54.1226V44.074H116.635C116.586 44.7312 116.556 45.3934 116.581 46.0555C116.581 46.0576 116.581 46.0596 116.581 46.0615L116.582 46.0691C116.583 46.0735 116.583 46.0778 116.583 46.0827C116.597 46.2932 116.612 46.5035 116.628 46.7137L116.628 46.7144L116.628 46.7152C116.669 47.2843 116.71 47.8528 116.727 48.4225C116.771 49.989 116.628 51.4962 116.101 52.9292C117.567 52.8106 119.054 52.9564 120.492 53.3023C120.994 53.4232 121.488 53.5644 121.982 53.7056L121.982 53.7056L121.982 53.7056C122.296 53.7953 122.61 53.885 122.926 53.9694ZM120.289 113.989C122.021 113.611 123.677 113.275 125.463 113.248C125.745 113.246 126.041 113.28 126.298 113.364C125.656 112.038 125.073 110.664 124.727 109.246C124.6 108.723 124.489 108.206 124.38 107.696L124.38 107.695C124.01 105.962 123.656 104.305 122.728 102.792C120.672 106.913 117.987 110.691 114.765 113.965C114.792 113.962 114.817 113.955 114.846 113.955C114.85 113.955 114.853 113.954 114.856 113.954L114.856 113.954C114.858 113.953 114.859 113.953 114.861 113.953C114.862 113.953 114.864 113.952 114.866 113.952C114.975 113.948 115.076 113.961 115.18 113.974L115.222 113.98C115.243 113.982 115.264 113.985 115.286 113.987L115.286 113.987L115.286 113.987C115.338 113.993 115.39 114 115.439 114.012C115.445 114.013 115.451 114.014 115.457 114.015C115.467 114.016 115.477 114.017 115.488 114.018H115.488C115.508 114.019 115.529 114.021 115.548 114.027C117.159 114.538 118.856 114.301 120.289 113.989ZM130.896 76.8908C131.731 75.2601 132.866 73.7875 134.049 72.3816C132.885 72.1568 131.726 71.9023 130.59 71.5638C129.507 71.2411 128.491 70.7559 127.478 70.272C126.42 69.7667 125.365 69.2628 124.24 68.9473C125.95 73.3106 126.948 77.9878 127.156 82.8207C128.617 81.7617 129.422 80.0237 130.208 78.328C130.434 77.8397 130.658 77.3549 130.896 76.8908ZM113.897 41.2301C112.492 41.6378 111.058 41.9763 109.613 42.1147C109.029 42.1705 108.451 42.1973 107.885 42.2235C105.471 42.3356 103.262 42.4381 101.581 44.746C101.497 44.8646 101.262 45.0055 100.97 45.1389C105.472 47.0043 109.537 49.5789 113.04 52.7291C113.466 51.1198 113.412 49.5165 113.357 47.8541L113.357 47.8536C113.334 47.1528 113.31 46.4414 113.322 45.7146C113.323 45.6128 113.331 45.5102 113.339 45.4077C113.345 45.3311 113.351 45.2545 113.354 45.1784C113.357 45.1266 113.36 45.0751 113.363 45.0237C113.368 44.9205 113.374 44.8178 113.383 44.7139C113.47 43.5477 113.66 42.379 113.897 41.2301ZM74.8098 32.6195C74.3107 33.5781 73.7572 34.5072 73.1099 35.367C72.8878 35.6615 72.6644 35.9507 72.4435 36.2368C70.5527 38.685 68.8345 40.9098 69.5446 44.3211C69.5585 44.3826 69.5406 44.4425 69.5227 44.502L69.5171 44.5211C69.5155 44.5262 69.5141 44.5313 69.5126 44.5365C69.5118 44.5396 69.5109 44.5428 69.5101 44.5459C78.7681 41.2277 89.0884 40.9361 98.5812 44.2074C98.9027 41.1809 97.2802 39.0696 95.5171 36.7755L95.5169 36.7752C95.3154 36.513 95.112 36.2484 94.9095 35.9797C94.0794 34.8802 93.4073 33.6696 92.8045 32.4268C92.3548 32.9506 91.9026 33.4744 91.4085 33.9488C90.767 34.5618 90.0794 35.1026 89.3975 35.6388L89.3974 35.6389L89.3974 35.639C87.9442 36.7817 86.5174 37.9038 85.6194 39.6612C85.2216 40.4395 82.9436 41.3734 82.4025 40.3184C81.4655 38.4806 80.0181 37.338 78.5161 36.1522C77.9624 35.7151 77.4013 35.2721 76.8556 34.7863C76.1168 34.1291 75.4448 33.3904 74.8098 32.6195ZM66.8811 45.5886C66.6908 45.5466 66.5228 45.4823 66.4338 45.3613C64.3659 42.5199 61.5557 42.3654 58.408 42.1925C58.1972 42.1809 57.985 42.1692 57.7713 42.1567C56.6125 42.0875 55.4611 41.8824 54.3295 41.6032C54.4802 42.4433 54.5988 43.2907 54.6581 44.1382C54.6653 44.219 54.6667 44.3006 54.668 44.382V44.382V44.3821C54.669 44.4402 54.67 44.4982 54.6731 44.5558C54.6765 44.6239 54.6803 44.6921 54.6841 44.7602C54.6968 44.9886 54.7095 45.2169 54.7076 45.4453C54.702 45.9859 54.6829 46.5161 54.6641 47.0386L54.6641 47.0388C54.5912 49.0639 54.5226 50.972 55.261 52.9144C58.7349 49.863 62.6709 47.4021 66.8811 45.5886ZM44.3501 50.7871V53.6606C44.3501 53.7847 44.345 53.9147 44.3398 54.0482V54.0482V54.0483C44.3361 54.1433 44.3324 54.24 44.3303 54.3376C45.0641 54.2511 45.793 54.1325 46.517 53.9423C48.2786 53.4753 49.9885 53.0528 51.7254 52.9811C51.3524 51.7087 51.2634 50.3621 51.3153 49.0205C51.3341 48.5101 51.3716 48.0011 51.4091 47.4914V47.4914L51.4092 47.4912C51.4209 47.3323 51.4326 47.1733 51.4437 47.0142L51.4444 47.0002L51.4444 46.9999C51.4491 46.9036 51.4538 46.8092 51.4561 46.7103C51.4907 45.8431 51.4289 44.9783 51.335 44.1135C51.3288 44.0653 51.3233 44.0165 51.3177 43.9678C51.3121 43.919 51.3065 43.8702 51.3003 43.822H44.3501V44.2791V50.7871ZM40.9923 82.2524C41.2715 77.6048 42.2795 73.0018 44.0486 68.6557C42.438 68.808 40.9438 69.5294 39.4516 70.2498C38.4257 70.7451 37.4008 71.24 36.3398 71.549C35.6505 71.7491 34.9538 71.9196 34.2521 72.0753C34.897 72.8634 35.5146 73.6763 36.0804 74.5238C36.0922 74.5345 36.1041 74.5448 36.116 74.555C36.1563 74.5897 36.1957 74.6238 36.2263 74.6696C36.587 75.2156 36.9008 75.8086 37.2047 76.4115C37.2247 76.4495 37.2461 76.4862 37.2676 76.5228L37.2676 76.5229L37.2676 76.523C37.2963 76.572 37.3249 76.6211 37.3504 76.6734C37.4768 76.9327 37.6014 77.1935 37.7259 77.454L37.726 77.4541C37.9299 77.8809 38.1335 78.3068 38.3437 78.7241C39.0355 80.0929 39.831 81.358 40.9923 82.2524ZM34.0965 77.716L27.5834 84.229C28.9856 85.6328 30.39 87.0367 31.7944 88.4405L31.8062 88.4524L31.8098 88.4559L31.8133 88.4594C32.5258 89.1717 33.2384 89.8839 33.9506 90.5962L34.0531 90.4279L34.0535 90.4273L34.0558 90.4235C34.1453 90.2765 34.2357 90.1281 34.3261 89.981L34.3991 89.8467L34.3991 89.8466C34.9279 88.8732 35.457 87.8993 36.1373 87.0136C36.9749 85.9239 38.0002 85.0666 39.1516 84.4365C37.9359 83.7225 36.8958 82.7342 36.1126 81.5087C35.7617 80.9651 35.4702 80.3919 35.191 79.8113C35.1722 79.7759 35.152 79.7436 35.1318 79.7113L35.1318 79.7113C35.1067 79.6713 35.0818 79.6315 35.0599 79.5864C34.7437 78.944 34.4251 78.3214 34.0965 77.716ZM34.9809 93.6352C34.3929 94.3493 33.7653 95.0287 33.1229 95.6909C34.5436 96.0591 35.9693 96.4593 37.301 97.0449C38.1055 97.3995 38.8649 97.8224 39.6171 98.2412C40.9349 98.9749 42.2306 99.6964 43.7076 100.017C41.9583 95.4661 41.0492 90.6802 40.9306 85.8819C39.8855 86.423 39.0552 87.3644 38.4054 88.3651C37.9736 89.0288 37.5946 89.7144 37.2163 90.3986C36.6681 91.3903 36.1215 92.379 35.4182 93.2943C35.3185 93.4235 35.1688 93.5173 35.0208 93.6102L34.9809 93.6352ZM44.3526 124.9H44.6096H51.0188C51.0212 124.881 51.0237 124.858 51.0262 124.836C51.0706 124.265 51.0953 123.697 51.0805 123.129C51.0792 123.115 51.0786 123.102 51.078 123.089C51.0775 123.076 51.0769 123.063 51.0756 123.05C51.0575 122.754 51.0357 122.459 51.0139 122.164L51.0138 122.164C50.9792 121.695 50.9445 121.227 50.9248 120.757C50.8631 119.198 50.9693 117.624 51.4832 116.154C50.0527 116.302 48.5974 116.211 47.1792 115.939C46.6457 115.835 46.1153 115.712 45.5843 115.59L45.5841 115.589L45.5838 115.589C45.4461 115.558 45.3083 115.526 45.1704 115.494C45.042 115.472 44.9233 115.45 44.7924 115.425C44.7065 115.409 44.6215 115.399 44.5368 115.389L44.5367 115.389L44.5365 115.389C44.4751 115.382 44.4139 115.375 44.3526 115.366V124.9ZM53.7268 127.675C55.14 127.265 56.5779 126.924 58.0283 126.786C58.6115 126.73 59.1876 126.703 59.7525 126.677L59.7528 126.677C62.1696 126.564 64.3805 126.461 66.0607 124.152C66.1719 123.999 66.5376 123.803 66.9725 123.638C62.4683 121.78 58.2951 119.171 54.6458 115.892C54.1588 117.581 54.2169 119.24 54.2769 120.957C54.2955 121.488 54.3142 122.024 54.3172 122.568V122.588C54.3175 122.59 54.3177 122.592 54.3179 122.595C54.318 122.597 54.3181 122.598 54.3182 122.6C54.3183 122.605 54.3182 122.61 54.318 122.615C54.3177 122.623 54.3172 122.631 54.3172 122.64C54.3172 122.678 54.3173 122.715 54.3175 122.753L54.318 122.827C54.319 122.981 54.32 123.135 54.3147 123.289C54.3134 123.339 54.3071 123.387 54.3008 123.436C54.2953 123.477 54.2899 123.519 54.2876 123.561C54.2555 124.209 54.1912 124.856 54.1023 125.496C54.1023 125.5 54.1004 125.503 54.0986 125.507L54.0964 125.512C54.0955 125.514 54.0949 125.516 54.0949 125.518C53.9936 126.242 53.875 126.959 53.7268 127.675ZM84.3816 126.951C79.1436 127.025 73.9623 126.173 69.0899 124.453C68.6572 127.6 70.3131 129.758 72.1156 132.107L72.1161 132.108C72.3204 132.374 72.5266 132.643 72.7318 132.916C73.5595 134.013 74.2291 135.218 74.8295 136.456C75.4176 135.772 76.0254 135.105 76.695 134.514C77.2038 134.063 77.7252 133.647 78.2382 133.238C80.0193 131.816 81.7001 130.474 82.4098 128.038C82.5457 127.576 83.5317 127.075 84.3816 126.951ZM78.7729 135.493C80.6334 137.353 82.4939 139.214 84.3569 141.074C86.0098 139.421 87.6628 137.768 89.3158 136.118C88.7944 135.591 88.2558 135.08 87.6678 134.615C87.0501 134.129 86.4497 133.649 85.8789 133.158C85.0908 132.496 84.3569 131.786 83.7491 130.983C83.6849 131.063 83.618 131.144 83.5489 131.221C83.5238 131.247 83.4979 131.272 83.4716 131.297C83.4633 131.305 83.4549 131.313 83.4466 131.321C83.437 131.33 83.4275 131.34 83.418 131.349C82.5952 132.248 81.6465 133.059 80.6285 133.842C79.9614 134.356 79.356 134.914 78.7729 135.493ZM93.6049 136.286C94.104 135.325 94.66 134.393 95.3074 133.533C95.5283 133.241 95.7505 132.953 95.9704 132.669C97.8645 130.218 99.585 127.993 98.8677 124.577C98.8455 124.463 98.8677 124.349 98.9196 124.243C96.7749 125.044 94.5587 125.698 92.2634 126.153C89.8717 126.627 87.4651 126.879 85.0635 126.949C85.3427 127.003 85.5551 127.134 85.6268 127.384C86.3832 129.973 88.2028 131.417 90.1488 132.962C90.4719 133.219 90.7985 133.478 91.1244 133.746C91.1572 133.773 91.1894 133.804 91.2216 133.834L91.2217 133.834L91.2218 133.834L91.2526 133.863C91.2682 133.878 91.2839 133.892 91.2997 133.906C91.3072 133.913 91.3152 133.919 91.3232 133.925C91.3312 133.931 91.3392 133.937 91.3466 133.943C91.3542 133.95 91.3614 133.956 91.3684 133.963C91.3796 133.973 91.3902 133.984 91.4009 133.996L91.4009 133.996C91.4158 134.011 91.4308 134.027 91.448 134.042C92.2263 134.724 92.9378 135.483 93.6049 136.286ZM101.274 123.265C101.595 123.28 101.857 123.364 101.983 123.537C104.047 126.375 106.851 126.532 109.993 126.708C110.21 126.721 110.428 126.733 110.648 126.746C111.805 126.815 112.954 127.02 114.085 127.297C113.939 126.484 113.826 125.669 113.767 124.851C113.749 124.655 113.741 124.458 113.733 124.262C113.731 124.188 113.728 124.114 113.724 124.041C113.724 123.992 113.721 123.945 113.718 123.897L113.716 123.867C113.714 123.829 113.712 123.792 113.712 123.754C113.71 123.697 113.712 123.643 113.715 123.588C113.714 123.526 113.71 123.463 113.706 123.4C113.701 123.303 113.695 123.205 113.7 123.109C113.703 123.036 113.708 122.962 113.714 122.889V122.889V122.889L113.719 122.827C113.721 122.799 113.723 122.771 113.724 122.743C113.733 122.432 113.745 122.124 113.756 121.819C113.835 119.697 113.91 117.686 113.035 115.595C109.581 118.741 105.623 121.342 101.274 123.265ZM117.067 124.646H117.332C119.444 124.646 121.554 124.646 123.669 124.648V124.466V115.467C123.641 115.469 123.612 115.47 123.583 115.471L123.576 115.471C123.545 115.471 123.514 115.472 123.484 115.474C123.262 115.494 123.042 115.519 122.822 115.549C122.777 115.556 122.627 115.581 122.58 115.591C122.242 115.662 121.907 115.74 121.57 115.818C121.087 115.93 120.602 116.042 120.114 116.137C119.032 116.344 117.935 116.49 116.843 116.5C117.107 117.698 117.169 118.943 117.117 120.176C117.1 120.648 117.065 121.119 117.03 121.589L117.03 121.59L117.03 121.59C117.005 121.927 116.98 122.264 116.961 122.603C116.947 122.847 116.958 123.091 116.969 123.336V123.336C116.972 123.386 116.974 123.435 116.976 123.485C116.981 123.569 116.983 123.652 116.984 123.735V123.736C116.987 123.836 116.989 123.936 116.996 124.036C117.013 124.232 117.039 124.429 117.065 124.628L117.065 124.628L117.067 124.646ZM132.517 87.4805C132.779 87.8536 133.031 88.2366 133.273 88.6492C133.711 89.4028 134.158 90.1193 134.615 90.821C135.618 89.8162 136.623 88.812 137.627 87.8078C138.633 86.802 139.638 85.7962 140.644 84.7899L133.607 77.7531C133.303 78.3214 132.999 78.8946 132.69 79.4851C132.589 79.6776 132.472 79.848 132.356 80.0185C132.286 80.1216 132.216 80.2246 132.149 80.3326C132.104 80.41 132.06 80.4889 132.017 80.568L132.017 80.5682C131.932 80.7213 131.847 80.8754 131.746 81.0219C131.723 81.0553 131.697 81.0833 131.67 81.1112C131.646 81.137 131.622 81.1627 131.6 81.1924C131.431 81.4237 131.242 81.6329 131.053 81.8426L131.053 81.8427L131.053 81.843C131.014 81.8863 130.975 81.9296 130.936 81.9732L130.862 82.0549L130.862 82.0549C130.657 82.2827 130.452 82.5109 130.227 82.7095C129.859 83.048 129.456 83.342 129.041 83.6187C129.035 83.6224 129.029 83.6261 129.023 83.6298C129.017 83.6337 129.011 83.6376 129.005 83.6415C128.994 83.6487 128.983 83.6558 128.973 83.6628C128.947 83.6799 128.922 83.6966 128.895 83.7126C128.836 83.7511 128.777 83.791 128.718 83.8309L128.718 83.831C128.604 83.9091 128.489 83.9874 128.366 84.056C128.779 84.2166 129.177 84.4019 129.542 84.6194C129.819 84.7775 130.079 84.9653 130.336 85.158C130.374 85.1891 130.414 85.2187 130.454 85.2483L130.454 85.2484C130.503 85.2847 130.552 85.3212 130.6 85.3606C131.181 85.8301 131.729 86.3539 132.198 86.9938C132.268 87.0872 132.33 87.186 132.392 87.2848L132.392 87.2853C132.433 87.3509 132.474 87.4165 132.517 87.4805ZM84.0954 28.3715C82.2324 30.232 80.3719 32.0925 78.5114 33.953C79.0945 34.5312 79.7 35.0896 80.3671 35.6035C81.385 36.3867 82.3337 37.1971 83.1565 38.0965C83.1744 38.1144 83.1923 38.1315 83.2101 38.1485C83.2364 38.1736 83.2623 38.1984 83.2874 38.225C83.3566 38.3016 83.4234 38.3831 83.4877 38.4622C84.0955 37.6592 84.8293 36.9501 85.6175 36.2879C86.1882 35.7962 86.7886 35.3169 87.4063 34.8301C87.9943 34.3656 88.533 33.8542 89.0543 33.3279C87.4013 31.6774 85.7483 30.0245 84.0954 28.3715Z" fill="#FE87EC"/>
</svg>
