<svg width="168" height="169" viewBox="0 0 168 169" fill="none" xmlns="http://www.w3.org/2000/svg">
<rect y="0.834473" width="168" height="168" rx="84" fill="white" fill-opacity="0.8"/>
<path d="M99.1086 43.9241C82.0024 37.8885 62.1324 43.25 50.3878 57.0662C38.4772 71.0742 36.6935 91.5352 46.1981 107.319C55.6508 123.015 74.45 130.868 92.3106 127.363C112.647 123.375 127.793 105.408 127.99 84.6622C127.814 66.4385 116.386 50.0194 99.1086 43.9241ZM98.1259 123.585C81.909 129.58 63.3587 123.972 52.5993 110.617C41.9799 97.4335 40.4839 78.5021 48.9566 63.8355C57.6057 48.8631 75.2408 40.8311 92.1966 44.593C110.993 48.762 124.4 65.8656 124.581 85.0018C124.423 101.911 114.182 117.651 98.1259 123.585Z" fill="#FCA828"/>
<path d="M95.8442 53.0812C82.4844 48.347 66.9908 52.5393 57.8207 63.3325C48.5883 74.193 47.2246 90.0651 54.5799 102.295C61.9015 114.464 76.4306 120.505 90.2675 117.894C106.173 114.892 118.014 100.861 118.211 84.6906C118.04 70.5581 109.261 57.8361 95.8442 53.0812ZM78.7017 53.999C81.6159 53.4934 84.6181 53.3975 87.623 53.7838C87.8122 53.8201 88.0015 53.8434 88.1907 53.8849C98.6468 56.2105 106.033 65.7721 106.178 76.3864C106.051 85.6291 100.692 94.3741 91.8671 97.7004C82.9018 101.079 72.6739 97.7056 66.8223 90.3036C61.0848 83.0442 60.2214 72.6763 64.7663 64.5951C67.8049 59.1972 72.9176 55.4042 78.7017 53.999ZM94.846 114.262C82.4481 118.908 68.2016 114.553 60.0555 104.262C52.1221 94.2418 51.0254 80.0368 57.3566 68.93C59.1273 65.8266 61.4141 63.1354 64.0508 60.8876C57.5692 68.8859 56.6125 80.2209 61.9326 89.1214C67.3771 98.2319 78.3024 102.619 88.6004 100.627C100.425 98.346 109.406 88.144 109.575 76.0182C109.51 71.3592 108.196 66.9388 105.885 63.1536C111.369 68.9196 114.695 76.713 114.796 84.9758C114.638 97.7885 107.021 109.702 94.846 114.262Z" fill="#FCA828"/>
<path d="M142.442 102.536C142.921 96.6012 143.891 88.6004 138.607 84.4651C143.533 80.348 142.981 73.0938 142.525 67.2371C142.055 61.2222 142.646 55.4898 143.974 49.6046C144.057 49.239 143.665 49.1897 143.388 49.1638C137.915 48.5986 132.584 47.5797 127.506 45.4252C122.131 43.1437 116.399 40.7741 110.615 42.0367C109.134 35.9388 102.458 32.545 97.5217 29.5402C92.9405 26.7505 89.1112 22.9445 85.5645 18.9493C85.0097 18.327 82.8915 19.1308 82.4378 19.6415C78.7848 23.756 74.8621 27.5205 70.1487 30.3906C65.5986 33.1595 59.6952 36.4418 57.7689 41.7567C52.4514 40.9348 46.7372 43.3615 41.9927 45.3734C36.9708 47.5019 31.8426 48.609 26.4214 49.169C25.9884 49.2157 23.8339 49.5553 24.0102 50.3461C25.2625 55.8995 26.0169 61.4503 25.5606 67.1359C25.081 73.0705 24.1113 81.0714 29.3951 85.2066C24.4691 89.3237 25.0213 96.5779 25.4776 102.435C25.9469 108.45 25.3558 114.182 24.0284 120.067C23.9454 120.433 24.3369 120.482 24.6117 120.508C30.0848 121.076 35.4178 122.092 40.4942 124.246C45.8713 126.528 51.601 128.898 57.3852 127.635C58.8656 133.733 65.5416 137.127 70.478 140.132C75.0591 142.921 78.8911 146.725 82.4378 150.72C82.99 151.342 85.1108 150.538 85.5645 150.028C89.2175 145.913 93.1402 142.149 97.8536 139.279C102.404 136.512 108.307 133.227 110.231 127.912C115.548 128.734 121.262 126.308 126.007 124.298C131.032 122.17 136.157 121.063 141.578 120.503C142.014 120.456 144.168 120.116 143.989 119.326C142.742 113.775 141.985 108.221 142.442 102.536ZM110.443 125.898C109.847 125.667 107.542 126.051 107.389 126.862C106.14 133.554 98.7869 136.826 93.6043 140.119C90.1664 142.302 87.159 145.179 84.3719 148.179C81.3281 144.85 78.0485 141.651 74.214 139.286C69.0754 136.116 61.816 132.709 60.626 126.129C60.5093 125.473 58.5856 126.054 58.3393 126.149C52.3244 128.454 44.995 123.147 39.4234 121.376C35.5811 120.155 31.4692 119.559 27.4533 119.129C28.5422 114.234 29.4185 109.144 29.071 104.128C28.6562 98.1724 26.9036 89.0281 32.5607 84.9188C32.7266 84.797 33.157 84.4703 32.8459 84.2447C27.2121 80.151 28.5266 71.5927 29.0011 65.5726C29.4055 60.434 28.6666 55.3343 27.5777 50.3124C31.1659 49.869 34.7645 49.2494 38.1997 48.1838C44.295 46.2964 51.0021 41.2433 57.5693 43.7711C58.1656 43.9993 60.4704 43.6182 60.6234 42.8067C61.873 36.1151 69.2257 32.8406 74.4084 29.5506C77.8462 27.3676 80.8537 24.4923 83.6408 21.4901C86.6819 24.819 89.9642 28.0157 93.7987 30.3828C98.9373 33.5562 106.199 36.9603 107.387 43.5404C107.506 44.1963 109.43 43.6156 109.673 43.5223C115.688 41.2148 123.02 46.5245 128.592 48.2927C132.434 49.5138 136.546 50.1101 140.562 50.5405C139.473 55.4354 138.597 60.5247 138.944 65.5415C139.359 71.4968 141.112 80.641 135.455 84.7503C135.19 84.9421 135.136 85.0718 135.164 85.1729C135.102 85.2714 135.084 85.3622 135.169 85.4244C140.803 89.5182 139.489 98.0764 139.014 104.097C138.61 109.235 139.349 114.335 140.438 119.357C136.849 119.8 133.251 120.422 129.816 121.485C123.718 123.373 117.008 128.423 110.443 125.898Z" fill="#FCA828"/>
</svg>
