<svg width="168" height="169" viewBox="0 0 168 169" fill="none" xmlns="http://www.w3.org/2000/svg">
<rect y="0.834473" width="168" height="168" rx="84" fill="white" fill-opacity="0.8"/>
<path d="M137.169 82.3834C139.072 79.0203 140.976 76.1108 143.708 73.3148C144.201 72.8093 144.055 72.3063 143.382 72.0992C140.044 71.0711 137.075 69.7396 134.183 67.7942C131.352 65.8932 128.475 64.5914 125.267 64.6703C127.035 61.8668 127.171 58.6344 126.865 55.217C126.557 51.7897 126.855 48.5449 127.526 45.1695C127.706 44.2523 126.14 44.3632 125.684 44.4964C122.75 45.3396 119.853 45.9536 116.793 45.9166C114.051 45.8845 111.383 46.03 108.878 46.9102C108.797 43.5348 107.122 40.756 105.784 37.6024C104.75 35.1713 104.275 32.4517 103.865 29.8554C103.71 28.8716 101.696 29.4313 101.244 29.7592C98.2141 31.9808 95.1813 33.5045 91.69 34.8335C89.2539 35.7606 86.9905 36.9959 85.3286 38.8155C84.0021 36.4017 81.6721 34.7053 79.1448 33.29C76.043 31.5542 73.4418 29.488 70.9515 26.9434C70.1797 26.1544 68.1776 26.7906 67.8521 27.7744C66.8659 30.7455 65.6997 33.5884 63.8948 36.1576C62.1442 38.6479 60.5415 41.1825 60.1742 44.0599C57.891 43.1131 55.3317 42.9479 52.7378 43.0441C49.2514 43.1723 46.0312 42.7803 42.6434 41.9247C41.9358 41.7472 39.8079 42.1737 40.0619 43.2685C40.7621 46.2815 41.3046 49.3241 41.1024 52.4234C40.8953 55.6213 40.8065 58.765 42.1824 61.5808C39.48 61.8569 36.9552 62.9837 34.5043 64.4163C31.6023 66.1127 28.678 67.1877 25.4086 67.9816C24.9401 68.095 23.5421 68.7805 24.1511 69.4856C26.5625 72.2743 28.392 75.132 29.9503 78.4581C31.3631 81.4761 33.1803 84.0872 36.0627 85.4679C33.385 86.8906 31.5283 89.3242 30.1549 92.2263C28.5399 95.6289 26.7869 98.5753 24.2966 101.44C23.8651 101.936 23.8897 102.476 24.622 102.656C27.9137 103.462 30.9316 104.552 33.8583 106.263C36.7727 107.967 39.7142 109.178 42.922 109.025C41.2183 112.008 41.4131 115.465 41.852 118.9C42.2637 122.102 41.9629 125.229 41.4303 128.405C41.2774 129.312 42.7914 129.231 43.2722 129.078C46.5934 128.018 49.7543 127.45 53.2309 127.357C55.9406 127.285 58.5937 126.915 60.9557 125.791C61.2541 128.989 63.0343 131.659 64.9304 134.359C66.6637 136.827 67.7412 139.663 68.688 142.516C69.0382 143.566 71.0649 142.93 71.595 142.39C73.2223 140.728 74.9335 139.004 76.8739 137.715C79.0338 136.275 81.2924 135.21 83.2969 133.647C85.3829 135.385 87.782 136.502 90.0824 138.021C92.0549 139.323 93.803 141.048 95.4624 142.725C96.2366 143.507 98.2388 142.885 98.5618 141.894C99.3236 139.559 100.155 137.15 101.422 135.04C102.721 132.872 104.238 130.976 105.276 128.76C107.887 130.212 110.944 130.38 114.048 130.106C117.648 129.79 120.92 129.817 124.5 130.463C125.151 130.579 127.42 130.227 127.082 129.12C126.31 126.602 125.561 123.954 125.41 121.316C125.228 118.022 125.432 114.947 124.182 111.969C126.991 111.628 129.56 110.415 132.198 109.146C134.656 107.964 137.356 107.395 140.036 106.954C140.608 106.86 142.401 106.268 141.733 105.366C139.536 102.404 137.936 99.4161 136.646 95.979C135.463 92.818 133.84 90.1034 131.029 88.5278C133.658 87.2728 135.606 85.14 137.169 82.3834ZM128.332 87.65C128.088 87.6969 127.866 87.7931 127.659 87.9065C126.862 88.2566 126.236 88.8631 126.724 89.2798C126.796 89.4475 126.981 89.5659 127.326 89.5831C131.49 91.0058 132.768 95.2122 134.18 98.9599C135.073 101.322 136.464 103.482 137.938 105.541C136.508 105.827 135.085 106.15 133.702 106.589C129.888 107.799 126.71 110.541 122.491 110.073C121.766 109.991 119.756 110.659 120.39 111.678C122.55 115.142 121.889 118.909 122.225 122.753C122.38 124.566 122.809 126.378 123.312 128.148C121.544 127.907 119.764 127.756 118.008 127.857C113.723 128.106 109.448 129.245 106.038 125.821C105.3 125.083 103.19 125.621 102.938 126.652C102.053 130.301 99.4617 132.771 97.8122 136.016C97.25 137.118 96.7742 138.267 96.3328 139.429C95.3786 138.548 94.3923 137.698 93.3494 136.938C90.5977 134.936 87.4689 133.834 85.0673 131.312C84.4164 130.629 82.8482 131.058 82.2811 131.652C79.8352 134.211 76.5633 135.326 73.8042 137.439C72.9018 138.132 72.0364 138.876 71.1956 139.648C70.5669 137.907 69.8518 136.181 68.9173 134.611C66.7599 130.981 63.6531 127.966 64.1635 123.375C64.3189 121.987 61.7423 122.805 61.2516 123.259C58.2139 126.067 54.1925 125.177 50.4472 125.564C48.5634 125.759 46.6846 126.21 44.8477 126.745C45.2003 124.467 45.4641 122.13 45.2792 119.844C44.9365 115.583 43.8565 111.439 46.8424 107.817C46.9731 107.656 47.0076 107.528 47.0027 107.412C47.2246 107.777 47.4218 108.154 47.6585 108.514C57.166 123.081 74.9557 129.637 91.7639 125.843C110.673 121.575 124.596 105.24 124.781 85.6997C124.616 68.1517 113.124 52.3667 96.2909 47.1469C80.454 42.2354 62.1467 47.4033 51.2042 59.8475C39.766 72.8587 38.0056 92.2805 46.8277 107.114C46.4085 106.815 45.3951 106.806 45.1066 106.889C40.7178 108.149 37.3127 104.816 33.6241 103.112C31.7428 102.242 29.7037 101.64 27.6819 101.12C29.3166 99.2016 30.9045 97.1847 31.9993 94.9212C33.6882 91.4299 35.0443 87.1125 39.3124 86.1633C40.0841 85.9931 41.5092 84.7283 40.0545 84.3905C35.6139 83.3598 33.9817 79.2767 32.236 75.5487C31.1412 73.2137 29.578 71.1302 27.9211 69.1528C29.5682 68.704 31.2102 68.2084 32.7685 67.5353C36.3683 65.9795 39.4824 62.7273 43.716 63.5435C44.3496 63.6643 47.0397 63.1095 46.1792 61.9876C43.4694 58.4544 44.3916 54.3713 44.4088 50.2709C44.4162 48.328 44.1154 46.3702 43.7184 44.4495C45.4419 44.8046 47.1925 45.0709 48.9284 45.0832C53.0287 45.1078 57.1463 44.2646 60.3961 47.4354C61.0963 48.1184 63.742 47.6055 63.4929 46.3604C62.5363 41.6115 65.6874 38.4679 67.9557 34.7373C68.8039 33.3418 69.4672 31.8131 70.0564 30.2622C71.6123 31.7071 73.2593 33.0508 75.111 34.0913C78.8021 36.1699 82.5178 38.1917 83.1589 42.7951C83.3364 44.0772 86.1127 43.0022 86.3765 42.1786C87.7597 37.844 91.8404 36.7838 95.6301 35.3192C97.5015 34.5968 99.2546 33.5686 100.931 32.4418C101.259 34.3083 101.673 36.1847 102.347 37.9353C103.769 41.6362 106.116 44.7232 105.569 48.9222C105.406 50.1723 107.675 49.5904 108.19 49.26C111.524 47.1445 115.377 48.1554 119.066 47.751C120.743 47.5661 122.417 47.2061 124.064 46.782C123.64 49.0677 123.302 51.4125 123.425 53.7203C123.642 57.8429 124.609 62.2317 121.51 65.5949C120.506 66.6847 122.239 66.9707 123.041 66.7587C127.437 65.5998 130.726 69.1577 134.227 71.113C136.109 72.1633 138.209 72.9055 140.283 73.5638C138.587 75.3317 136.92 77.213 135.712 79.3236C133.936 82.4475 132.344 86.898 128.332 87.65ZM72.9437 67.8928C79.4924 67.8928 86.0388 67.8928 92.5875 67.8928C96.1602 74.0841 99.7354 80.2728 103.308 86.4641C99.8537 92.4482 96.3945 98.4348 92.9401 104.421C86.4185 104.421 79.8969 104.421 73.3752 104.421C69.7877 98.2079 66.2002 91.9945 62.6151 85.7811C66.0572 79.8167 69.5017 73.8548 72.9437 67.8928ZM61.1629 83.2612C59.3358 80.0953 57.5063 76.9294 55.6793 73.7635C54.55 71.8058 53.4183 69.8481 52.289 67.8904C58.2041 67.8904 64.1217 67.8904 70.0367 67.8904C67.078 73.0165 64.1217 78.1401 61.1629 83.2612ZM82.7644 50.8799C85.7231 56.0035 88.6794 61.1271 91.6382 66.2507C85.7231 66.2507 79.8056 66.2507 73.8905 66.2507C76.0775 62.4635 78.2621 58.6787 80.4491 54.894C81.2209 53.5551 81.9926 52.2187 82.7644 50.8799ZM96.2983 67.8928C99.8981 67.8928 103.498 67.8928 107.098 67.8928C109.411 67.8928 111.718 67.8928 114.031 67.8928C111.075 73.0115 108.121 78.1302 105.165 83.2489C102.208 78.1277 99.2521 73.0115 96.2983 67.8928ZM104.778 89.0086C106.602 92.1696 108.427 95.3305 110.254 98.4915C111.393 100.466 112.535 102.444 113.676 104.419C107.746 104.419 101.814 104.419 95.8841 104.419C98.8478 99.283 101.814 94.1445 104.778 89.0086ZM83.1589 121.36C80.1927 116.224 77.229 111.088 74.2628 105.95C80.1952 105.95 86.125 105.95 92.0549 105.95C89.9024 109.678 87.7499 113.406 85.5974 117.137C84.7838 118.545 83.9701 119.952 83.1589 121.36ZM69.6644 104.419C66.0597 104.419 62.4549 104.419 58.8477 104.419C56.5152 104.419 54.1851 104.419 51.8526 104.419C54.8213 99.278 57.7899 94.1371 60.7585 88.9938C63.7296 94.1371 66.6983 99.278 69.6644 104.419ZM70.5496 105.953C72.781 109.819 75.0148 113.685 77.2462 117.551C78.6171 119.925 79.988 122.3 81.3589 124.674C81.7386 125.332 83.2377 125.039 84.0588 124.561C84.1057 124.534 84.1525 124.509 84.192 124.479C84.4188 124.324 84.5544 124.164 84.5791 124.004C88.0531 117.987 91.5248 111.971 95.0014 105.955C99.0302 105.955 103.059 105.955 107.085 105.955C109.827 105.955 112.572 105.955 115.313 105.955C115.456 105.955 116.041 105.844 116.588 105.657C112.14 113.87 104.945 120.52 95.8397 123.742C80.1533 129.297 62.1442 122.852 52.3408 109.74C51.431 108.524 50.6247 107.252 49.8727 105.953C56.7617 105.953 63.6557 105.953 70.5496 105.953ZM117.308 104.286C113.753 98.1216 110.192 91.9575 106.634 85.7959C108.868 81.9224 111.104 78.0488 113.343 74.1778C114.524 72.1264 115.71 70.0774 116.894 68.026C119.833 73.6526 121.507 79.9918 121.569 86.5602C121.512 92.7539 120.003 98.8293 117.308 104.286ZM95.3515 66.2507C93.1299 62.4019 90.9084 58.5555 88.6869 54.7066C87.316 52.3322 85.9451 49.9578 84.5742 47.5833C84.0884 46.7401 81.5143 47.6203 81.3664 48.2713C77.9071 54.2652 74.4453 60.2567 70.986 66.2507C66.9349 66.2507 62.8864 66.2507 58.8353 66.2507C56.0935 66.2507 53.3517 66.2507 50.6099 66.2507C50.4497 66.2507 49.8283 66.3666 49.2711 66.5688C49.4215 66.2951 49.5497 66.014 49.705 65.7453C58.2288 50.9909 75.2738 43.483 91.8478 47.8176C102.241 50.5372 110.69 57.3917 115.893 66.2507C109.043 66.2507 102.199 66.2507 95.3515 66.2507ZM48.5733 67.8855C52.1509 74.0841 55.7286 80.2802 59.3062 86.4789C57.0304 90.4214 54.7522 94.3665 52.4764 98.309C51.3102 100.328 50.1464 102.348 48.9801 104.367C43.1168 93.0942 42.8727 79.3556 48.5733 67.8855Z" fill="#B9EB17"/>
</svg>
