<svg width="168" height="169" viewBox="0 0 168 169" fill="none" xmlns="http://www.w3.org/2000/svg">
<rect y="0.834473" width="168" height="168" rx="84" fill="white" fill-opacity="0.8"/>
<path d="M142.422 96.759C140.164 94.4745 138.509 92.105 136.934 89.337C135.685 87.1482 134.166 85.4773 132.123 84.4626C133.914 83.3017 135.306 81.6707 136.365 79.6094C137.842 76.7272 139.205 74.1585 141.341 71.6668C142.058 70.8327 141.407 70.1393 140.515 69.9826C138.56 69.6426 136.554 69.2362 134.724 68.4525C132.53 67.5122 130.583 66.4656 128.333 65.9795C129.374 64.0828 129.873 62.0878 130.468 59.9149C131.069 57.7207 132.163 55.6806 133.292 53.7149C133.874 52.7028 132.498 52.3203 131.81 52.3309C129.541 52.3628 127.27 52.2752 125.078 51.6748C122.842 51.0665 120.738 50.6229 118.549 50.7238C119.221 48.4606 119.091 46.1947 118.987 43.7428C118.889 41.3946 119.317 39.057 119.819 36.7698C120.05 35.7179 118.368 35.5851 117.765 35.7843C114.681 36.807 111.834 37.1072 108.633 37.3649C106.64 37.5269 104.744 37.9785 103.081 38.8657C102.752 36.6822 101.625 34.7403 100.135 32.8543C98.334 30.5805 96.9447 28.3039 95.7998 25.6183C95.311 24.4734 93.2816 24.7205 92.6308 25.6104C91.2388 27.5097 89.7672 29.3585 87.9236 30.8302C86.5662 31.9113 85.2859 32.9499 84.1728 34.1666C82.9589 32.7427 81.466 31.635 79.9439 30.4025C78.188 28.9813 76.7775 27.1511 75.4466 25.3341C74.7453 24.3831 72.6362 24.9091 72.2085 25.9132C71.0237 28.6918 69.568 31.04 67.7165 33.4095C66.4149 35.0724 65.4214 36.7751 64.9857 38.6373C63.4131 37.8457 61.6308 37.4632 59.7394 37.341C56.6314 37.1417 53.8608 36.7751 50.8671 35.7843C49.9294 35.4735 47.8361 36.0632 48.1257 37.3781C48.6144 39.6069 49.0288 41.8754 48.9359 44.1625C48.8402 46.4603 48.6729 48.604 49.2148 50.7318C45.1293 50.7929 41.0703 52.392 36.8918 52.3336C35.9329 52.3203 33.9459 52.995 34.6923 54.294C35.7708 56.1747 36.8042 58.1192 37.3965 60.2151C37.9942 62.319 38.4405 64.3192 39.4207 66.192C37.5267 66.7232 35.8001 67.5866 33.8954 68.426C32.198 69.1724 29.523 69.7515 28.1948 69.9826C27.5121 70.1022 25.5464 70.907 26.4363 71.9457C28.5029 74.3577 29.9534 76.775 31.332 79.6067C32.4132 81.8274 33.7891 83.6843 35.7681 84.8637C34.0282 85.8333 32.5858 87.2146 31.417 89.1033C29.6319 91.9855 28.0726 94.5914 25.6553 97.0379C25.1266 97.5745 25.3232 98.4485 26.083 98.6397C28.5348 99.248 30.9043 99.9892 33.1011 101.251C35.0961 102.399 36.9954 103.291 39.1232 103.679C37.9437 105.573 37.3939 107.679 36.9529 109.956C36.4801 112.416 35.4733 114.66 34.339 116.881C33.829 117.883 35.0669 118.313 35.8213 118.265C37.965 118.132 40.1299 118.071 42.2471 118.472C44.5661 118.913 46.6673 119.344 48.8828 119.227C48.2824 121.599 48.5241 123.907 48.5613 126.452C48.5959 128.612 48.1602 130.798 47.698 132.902C47.4695 133.954 49.1484 134.087 49.7514 133.887C52.8354 132.865 55.6831 132.564 58.884 132.307C60.8763 132.145 62.7756 131.693 64.4358 130.806C64.7652 132.989 65.8916 134.931 67.3845 136.815C69.1828 139.088 70.5722 141.365 71.7171 144.051C72.2058 145.196 74.2353 144.948 74.8861 144.059C76.4932 141.864 78.2092 139.915 80.3662 138.257C81.6891 137.24 82.858 136.182 83.8089 134.963C84.8476 136.371 86.1678 137.553 87.6394 138.69C89.7167 140.292 91.3557 142.223 92.9017 144.335C93.603 145.286 95.7122 144.76 96.1399 143.756C97.3246 140.977 98.7803 138.629 100.632 136.259C101.933 134.597 102.927 132.894 103.363 131.032C104.935 131.826 106.718 132.208 108.609 132.328C111.717 132.525 114.488 132.894 117.481 133.885C118.419 134.195 120.512 133.606 120.223 132.293C119.758 130.171 119.335 127.99 119.396 125.812C119.46 123.498 119.673 121.37 119.205 119.219C121.113 119.208 122.972 118.871 124.986 118.48C127.076 118.074 129.22 118.132 131.34 118.265C132.37 118.329 134.201 117.596 133.542 116.305C132.455 114.182 131.502 112.007 131.026 109.666C130.575 107.459 130.118 105.382 129.023 103.512C131.287 102.93 133.319 101.761 135.43 100.563C137.234 99.673 139.197 99.1258 141.144 98.6424C141.707 98.4963 143.2 97.5479 142.422 96.759ZM138.09 97.0459C136.66 97.4709 135.25 97.9676 133.919 98.6238C131.523 99.9838 129.331 101.461 126.473 101.461C126.154 101.461 125.628 101.657 125.198 101.95C127.352 97.0592 128.643 91.7464 128.922 86.1972C131.789 87.103 133.18 89.8364 134.583 92.376C135.537 94.0973 136.759 95.6114 138.09 97.0459ZM47.0977 64.9621C52.0226 73.4917 56.9475 82.0214 61.8751 90.5537C62.3825 92.5672 63.1661 94.5303 64.2658 96.3712C65.2089 97.9517 66.383 99.3197 67.6554 100.571C71.037 106.428 74.4186 112.286 77.8001 118.14C79.2771 120.698 80.7514 123.256 82.231 125.817C82.2788 125.897 82.3638 125.942 82.4382 125.998C82.4594 126.011 82.4675 126.032 82.4914 126.043C83.1236 126.441 84.4438 126.149 85.1982 125.682C85.2194 125.668 85.2434 125.655 85.262 125.642C85.5196 125.469 85.6763 125.286 85.7029 125.103C90.4445 116.886 95.1889 108.67 99.9305 100.457C102.898 97.5532 105.06 93.8715 106.093 89.7833C109.626 83.663 113.157 77.5453 116.69 71.4277C117.914 69.3079 119.139 67.1855 120.363 65.0657C123.628 71.1913 125.485 78.1218 125.551 85.302C125.384 102.802 114.434 119.179 97.7336 125.015C80.9825 130.87 62.069 124.547 51.316 110.692C41.2429 97.71 39.6385 79.4978 47.0977 64.9621ZM119.078 62.8502C108.694 62.8502 98.3101 62.8502 87.921 62.8502C85.5993 62.4969 83.2404 62.5049 80.9267 62.8502C73.2683 62.8502 65.6126 62.8502 57.9569 62.8502C55.003 62.8502 52.0465 62.8502 49.0952 62.8502C48.9651 62.8502 48.5799 62.9166 48.1549 63.0335C48.2505 62.8688 48.3302 62.6988 48.4311 62.5341C57.6408 47.2413 75.6936 39.4289 93.1089 43.6392C104.266 46.3355 113.374 53.4997 119.078 62.8502ZM84.1648 122.236C80.8629 116.515 77.5611 110.795 74.2592 105.076C78.5094 106.944 83.3281 107.549 88.0166 106.673C90.3011 106.245 92.4608 105.464 94.4557 104.417C91.9029 108.84 89.3501 113.263 86.7947 117.683C85.9181 119.2 85.0414 120.72 84.1648 122.236ZM97.5052 99.1258C95.6351 101.044 93.3772 102.611 90.7341 103.591C83.793 106.168 76.0098 104.12 70.8006 99.0913C68.9783 95.9382 67.1614 92.7877 65.3391 89.6346C64.0693 84.6618 64.6378 79.2614 67.2224 74.6685C71.2389 67.5281 79.4843 63.6312 87.5385 65.3632C96.6871 67.3316 103.161 75.7337 103.288 84.9885C103.262 86.8932 102.961 88.7659 102.449 90.5643C100.802 93.4173 99.1548 96.2729 97.5052 99.1258ZM54.5648 70.9681C53.3508 68.8643 52.1368 66.7631 50.9229 64.6619C58.8389 64.6619 66.7575 64.6619 74.6736 64.6619C71.5682 66.0406 68.7525 68.07 66.5105 70.6919C63.5566 74.1425 61.8167 78.3555 61.3359 82.6987C59.0779 78.7885 56.8227 74.8783 54.5648 70.9681ZM106.664 83.2699C106.053 75.1599 101.219 68.0514 93.8262 64.6619C99.2053 64.6619 104.587 64.6619 109.969 64.6619C112.447 64.6619 114.926 64.6619 117.407 64.6619C113.823 70.8645 110.243 77.0672 106.664 83.2699ZM137.367 72.0307C136.217 73.4359 135.133 74.9182 134.328 76.528C132.965 79.2481 132.006 82.3029 128.967 83.4053C128.8 78.0926 127.679 72.9472 125.732 68.171C128.795 68.4818 131.202 70.3014 134.084 71.2152C135.154 71.5552 136.257 71.8076 137.367 72.0307ZM126.104 54.565C127.143 54.6898 128.194 54.735 129.246 54.7536C128.556 56.018 127.897 57.3037 127.424 58.6531C126.534 61.1847 126.327 63.8172 124.818 66.091C122.619 61.3866 119.638 57.0832 115.972 53.4174C116.19 53.4201 116.4 53.4041 116.567 53.3616C119.861 52.5009 122.876 54.1771 126.104 54.565ZM50.6545 53.359C51.3638 53.5423 54.0282 53.0375 53.396 51.7651C51.8925 48.7262 52.5326 45.8015 52.4689 42.5767C52.4476 41.384 52.2962 40.1913 52.089 39.0039C53.4039 39.3386 54.7374 39.5936 56.0869 39.6839C59.588 39.9177 62.781 39.737 65.0867 42.9061C65.8783 43.9925 68.71 43.1505 68.4072 41.6921C67.5731 37.6889 70.0515 35.253 72.2589 32.3124C72.9788 31.3561 73.5818 30.3175 74.1264 29.247C74.8037 30.0625 75.5157 30.8434 76.2967 31.5474C78.5121 33.545 80.9613 34.913 82.3718 37.673C82.9456 38.7967 85.1796 37.936 85.6099 37.0966C86.978 34.4189 89.4431 33.1386 91.5709 31.1835C92.2616 30.5459 92.8964 29.8446 93.5073 29.1194C94.1369 30.4158 94.8382 31.6802 95.6989 32.8224C97.9462 35.8029 100.345 38.2494 99.5002 42.3031C99.1708 43.8783 102.138 43.3869 102.688 42.6298C104.898 39.5883 107.969 39.9203 111.316 39.6733C112.888 39.559 114.437 39.2111 115.962 38.7807C115.68 40.2391 115.462 41.7187 115.454 43.1903C115.441 46.3036 116.063 49.1273 114.615 52.0573C114.599 52.0865 114.602 52.1078 114.591 52.1344C109.988 47.9081 104.476 44.6062 98.2756 42.6537C80.855 37.1683 61.1526 42.8662 49.3317 56.7698C46.9224 59.6041 44.9433 62.7121 43.3707 65.9848C41.652 63.5409 41.4582 60.765 40.4567 58.0236C40.0423 56.8893 39.4951 55.7896 38.9186 54.7084C39.6279 54.6792 40.3372 54.6473 41.0411 54.565C44.2978 54.1957 47.3287 52.4903 50.6545 53.359ZM33.7892 76.4722C32.9922 74.796 31.927 73.2765 30.7635 71.8315C31.5604 71.6535 32.3547 71.4596 33.133 71.2178C36.0922 70.3067 38.5653 68.3357 41.7344 68.1338C41.9469 68.1205 42.2258 68.0461 42.5021 67.9266C40.4514 72.7904 39.3038 77.9757 39.0674 83.2114C36.2569 81.9735 35.1147 79.2587 33.7892 76.4722ZM29.6612 96.8068C30.9203 95.4706 32.113 94.0521 33.0374 92.4769C34.5277 89.9321 35.7309 86.585 39.0169 85.99C39.1045 91.2603 40.1326 96.5199 42.1037 101.487C41.9974 101.474 41.8911 101.461 41.7902 101.463C38.6742 101.466 36.3792 99.3994 33.6909 98.1828C32.4026 97.5984 31.0345 97.1814 29.6612 96.8068ZM41.1793 115.771C40.2415 115.723 39.3038 115.723 38.3635 115.744C39.0276 114.373 39.6359 112.96 40.045 111.507C40.8552 108.628 40.9109 105.751 42.9005 103.355C43.6948 105.111 44.5821 106.835 45.6207 108.492C47.5732 111.603 49.8948 114.381 52.4875 116.831C52.0465 116.517 51.2762 116.464 50.7741 116.592C47.4935 117.434 44.4386 115.935 41.1793 115.771ZM127.525 115.765C124.247 115.933 121.16 117.442 117.853 116.594C117.107 116.4 114.543 116.886 115.112 118.185C116.44 121.222 115.794 124.083 115.879 127.249C115.911 128.391 116.063 129.531 116.259 130.665C114.942 130.33 113.606 130.073 112.253 129.982C108.752 129.749 105.559 129.929 103.254 126.76C102.462 125.674 99.6303 126.516 99.9331 127.974C100.767 131.977 98.2889 134.411 96.0814 137.354C95.3615 138.31 94.7559 139.351 94.2113 140.427C93.4649 139.529 92.6786 138.666 91.8046 137.909C89.3607 135.795 86.6619 134.312 85.695 130.992C85.2301 129.403 82.5471 130.447 82.2097 131.603C81.2694 134.838 78.4164 136.254 76.0868 138.35C75.3377 139.022 74.6523 139.769 73.9988 140.544C73.3666 139.248 72.668 137.986 71.81 136.846C69.56 133.866 67.164 131.42 68.0061 127.366C68.3355 125.791 65.3683 126.282 64.8184 127.039C62.6083 130.078 59.5375 129.746 56.1905 129.993C54.6153 130.11 53.0559 130.458 51.5285 130.891C51.7942 129.533 52.0226 128.165 52.0518 126.797C52.1209 123.708 51.4329 120.855 52.7265 117.891C52.9098 117.471 52.8302 117.168 52.6283 116.95C63.2883 126.941 78.6077 131.186 93.2125 128.043C107.265 125.018 118.695 115.609 124.616 103.249C124.648 103.307 124.661 103.365 124.712 103.424C126.909 105.9 126.996 108.784 127.812 111.807C128.176 113.16 128.731 114.464 129.337 115.742C128.734 115.742 128.131 115.736 127.525 115.765Z" fill="#6CD5FF"/>
</svg>
