<svg width="168" height="169" viewBox="0 0 168 169" fill="none" xmlns="http://www.w3.org/2000/svg">
<rect y="0.834473" width="168" height="168" rx="84" fill="white" fill-opacity="0.8"/>
<path d="M143.9 84.3011C139.378 80.1837 134.755 75.7124 131.396 70.5751C127.659 64.6464 124.603 57.8933 119.169 53.2594C113.854 48.7266 107.505 49.0959 101.904 52.4636C90.8797 46.7525 77.6836 46.924 66.8549 52.4658C62.7771 49.8741 58.2619 49.0519 53.6082 50.9336C48.994 52.7978 45.6857 56.7964 42.9598 60.806C39.9108 65.2949 37.6225 70.2937 34.1778 74.5056C31.1288 78.2317 27.6885 81.6829 24.1295 84.9232C23.9998 85.0397 23.9404 85.187 24.0811 85.3123C27.6379 88.5525 31.0804 92.0038 34.1272 95.7298C37.5257 99.8823 39.8075 104.791 42.8169 109.214C45.501 113.16 48.8115 117.356 53.4499 119.036C57.7585 120.597 62.3331 119.339 66.1295 117.046C72.1131 120.214 78.963 121.795 85.9513 121.351C91.2667 121.014 96.393 119.519 101.025 117.121C105.105 119.728 109.682 120.654 114.34 118.748C118.96 116.857 122.322 112.806 125.056 108.785C127.967 104.507 130.18 99.7526 133.418 95.7012C136.408 91.9576 140.549 87.8073 143.684 84.9517C143.853 84.8001 144.159 84.5363 143.9 84.3011ZM100.42 54.2376C102.618 55.506 104.656 56.9964 106.509 58.6649C106.558 58.7089 106.606 58.7528 106.652 58.7968C107.2 59.2958 107.729 59.8102 108.244 60.34C108.327 60.4257 108.409 60.5115 108.492 60.5972C108.98 61.1094 109.453 61.6348 109.908 62.1733C109.983 62.2613 110.057 62.3492 110.134 62.4393C110.609 63.0109 111.066 63.5956 111.504 64.1957C111.543 64.2463 111.581 64.2969 111.62 64.3496C112.157 65.0904 112.66 65.8576 113.137 66.638C96.2522 66.638 79.3718 66.638 62.4891 66.638C60.0447 66.638 57.598 66.638 55.1536 66.638C55.0525 66.638 54.7293 66.6952 54.3688 66.7941C54.5117 66.5479 54.6523 66.2995 54.8018 66.0577C54.9469 65.8181 55.0964 65.5807 55.248 65.3432C65.0567 50.2544 84.696 45.605 100.42 54.2376ZM84.1705 115.752C76.0018 101.604 67.8331 87.4556 59.6666 73.3075C58.6532 71.5533 57.6398 69.7991 56.6264 68.0449C72.9177 68.0449 89.209 68.0449 105.5 68.0449C107.571 68.0449 109.642 68.0449 111.713 68.0449C103.221 82.7535 94.7266 97.4643 86.2348 112.173C85.5467 113.366 84.8608 114.56 84.1705 115.752ZM53.8017 116.93C50.6582 115.046 48.2313 112.098 46.1539 109.133C44.1359 106.253 42.4102 103.191 40.6077 100.179C38.6512 96.9147 36.3144 94.0064 33.7227 91.2212C31.5728 88.9108 29.1459 86.8554 27.0092 84.5451C26.9674 84.5011 26.9543 84.5033 26.9257 84.4813C27.1147 84.2813 27.451 84.0504 27.5895 83.923C28.748 82.837 29.8889 81.7269 31.01 80.6014C33.9161 77.6733 36.8267 74.6243 39.1304 71.184C40.9814 68.4208 42.5179 65.451 44.2809 62.6328C46.4264 59.2035 48.8159 55.6995 52.0474 53.1956C56.2109 49.9686 60.5349 50.9908 64.5929 53.7298C62.4232 55.0356 60.3546 56.5458 58.4575 58.3066C52.7882 63.5692 49.0468 70.4696 47.5234 77.8228C47.453 78.1459 47.4024 78.4757 47.3431 78.8032C47.2639 79.2473 47.1717 79.6869 47.1101 80.1332C46.8661 81.784 46.7275 83.4657 46.7078 85.1716C46.7188 86.0948 46.7716 87.0093 46.8485 87.9194C47.1255 91.7158 47.996 95.4924 49.5237 99.102C51.9616 104.866 55.8328 109.726 60.5766 113.441C60.8668 113.67 61.157 113.898 61.4537 114.12C61.7417 114.332 62.0319 114.536 62.3242 114.74C62.8738 115.125 63.4366 115.494 64.0125 115.851C64.118 115.916 64.2257 115.985 64.3334 116.048C64.4983 116.149 64.661 116.257 64.8303 116.356C61.2647 118.691 57.642 119.231 53.8017 116.93ZM60.858 110.348C60.7635 110.258 60.6646 110.172 60.5701 110.082C60.2777 109.807 60.0051 109.511 59.7216 109.223C54.4985 103.811 51.0691 96.8993 49.9656 89.3549C49.3193 84.5648 49.6337 79.6583 50.9175 74.987C51.0736 74.4331 51.2494 73.8857 51.4297 73.3383C51.4846 73.1669 51.5374 72.991 51.5945 72.8217C51.8166 72.1886 52.0584 71.5665 52.3134 70.9466C52.353 70.8521 52.3881 70.7532 52.4299 70.6586C52.6761 70.0739 52.9465 69.498 53.2235 68.9286C53.3027 68.7681 53.3774 68.6077 53.4587 68.4472C53.4719 68.4208 53.4894 68.3944 53.5026 68.3659C61.9681 83.0239 70.4293 97.6841 78.8948 112.344C80.117 114.461 81.337 116.578 82.5614 118.695C83.0077 119.471 85.3181 118.688 85.4258 118.086C94.0101 103.217 102.596 88.3481 111.181 73.479C112.166 71.7732 113.15 70.0673 114.135 68.3615C115.335 70.5817 116.303 72.9229 117.013 75.3519C117.054 75.497 117.087 75.6443 117.129 75.7894C117.298 76.4005 117.454 77.016 117.591 77.6359C117.646 77.8931 117.694 78.1525 117.745 78.4097C117.846 78.9241 117.938 79.4407 118.015 79.9595C118.063 80.2826 118.105 80.6102 118.145 80.9355C118.2 81.3993 118.25 81.8654 118.285 82.3314C118.314 82.6875 118.336 83.0458 118.354 83.4042C118.378 83.857 118.389 84.3098 118.393 84.7649C118.395 85.1386 118.398 85.5101 118.389 85.8838C118.376 86.3718 118.351 86.862 118.321 87.3522C118.299 87.6732 118.279 87.9941 118.25 88.3151C118.195 88.9064 118.118 89.4956 118.033 90.0803C118.002 90.2979 117.976 90.5177 117.94 90.7354C117.808 91.5135 117.659 92.2895 117.479 93.0545C117.474 93.0699 117.472 93.0875 117.468 93.1029C114.674 104.826 105.916 114.751 94.1969 118.379C82.4054 122.03 69.6708 118.491 60.858 110.348ZM133.39 92.7446C130.251 96.2222 127.876 99.9813 125.496 103.984C123.064 108.071 120.466 112.344 116.843 115.501C112.482 119.302 107.903 118.889 103.324 115.829C110.871 111.25 116.826 104.14 119.585 95.5012C120.352 93.1073 120.816 90.6826 121.057 88.2623C121.097 87.9216 121.119 87.5765 121.148 87.2357C121.181 86.7851 121.22 86.3344 121.233 85.8838C121.24 85.7651 121.253 85.6508 121.257 85.5321C121.578 75.2662 117.375 65.5411 110.2 58.5616C110.18 58.544 110.163 58.5264 110.145 58.511C109.545 57.9285 108.923 57.3679 108.281 56.825C107.989 56.5744 107.69 56.3304 107.391 56.0908C107.081 55.8445 106.764 55.6071 106.446 55.3697C105.448 54.6201 104.412 53.9101 103.331 53.2572C115.397 45.4775 123.295 63.0373 128.532 71.3423C131.899 76.495 136.443 80.9817 140.98 85.1254C138.342 87.5523 135.79 90.0847 133.39 92.7446Z" fill="#A79AFE"/>
</svg>
